<svg id="icon" height="512" viewBox="0 0 128 128" width="512" xmlns="http://www.w3.org/2000/svg"><g fill="#ef5261"><circle cx="63.346" cy="64.201" r="24.579"/><path d="m32.845 31.46a5.335 5.335 0 1 1 5.33-5.33 5.337 5.337 0 0 1 -5.33 5.33z"/><path d="m109.075 60.8a7.5 7.5 0 0 1 -7.39 7.6 7.245 7.245 0 0 1 -5.51-2.55 4.56 4.56 0 0 0 -3.43-1.65 4.468 4.468 0 0 0 -1.58.29l-7.91 3.05 1.98 6.06a6.407 6.407 0 0 0 2.54 3.34 6.15 6.15 0 0 0 3.36 1.08c.14 0 .28-.01.42-.02s.31-.01.46-.01a4.876 4.876 0 1 1 -4.57 6.79 6.489 6.489 0 0 0 -1.81-2.46l-5.21-4.33-5.75 5.39-1.08 4.7a8.906 8.906 0 0 0 .28 5.01l.14.41a8.349 8.349 0 0 0 2.66 3.88 6.047 6.047 0 1 1 -9.22 2.427 9.453 9.453 0 0 0 .52-6.437l-.22-.74-2.33-5.75h-7.69l-3.42 3.84a9.086 9.086 0 0 0 -1.11 1.57l-.028.051a17.913 17.913 0 0 0 -1.8 7.149v.03a4.886 4.886 0 0 1 -5.962 4.763 5.317 5.317 0 0 1 -3.728-3.976 4.866 4.866 0 0 1 2.113-4.847 9.167 9.167 0 0 0 3.25-3.44l.7-1.35a8.361 8.361 0 0 0 .928-3.429l.242-4.811-5.67-6.64-6.041.141a6.281 6.281 0 0 0 -2.427.549 5.993 5.993 0 0 0 -3.017 2.869 6.769 6.769 0 1 1 -2.951-8.921 6.24 6.24 0 0 0 4.245.586l.383-.083a6.281 6.281 0 0 0 2.527-1.179l3.7-2.873 2.431-11.589-1.6-3.847a4.143 4.143 0 0 0 -1.238-1.649 4.311 4.311 0 0 0 -3-.884 5.1 5.1 0 0 1 -1.8-.215 4.772 4.772 0 0 1 -2.724-2.218 4.869 4.869 0 1 1 8.908-3.73 3.885 3.885 0 0 0 1.51 2.057l.682.5a4.312 4.312 0 0 0 1.9.826l3.612.582 5.66-4.25.552-4.6a4.847 4.847 0 0 0 -.158-1.93l-.338-1.165a5.015 5.015 0 0 0 -2.126-2.779 6.608 6.608 0 0 1 -3.09-5.527 7.269 7.269 0 0 1 14.5 0 6.419 6.419 0 0 1 -1.759 4.4 4.91 4.91 0 0 0 -1.31 4.015 4.847 4.847 0 0 0 .754 2.006l2.966 4.5 10.299 2.658 2.259-.978a18 18 0 0 0 5.4-3.614 3.575 3.575 0 0 0 1.083-2.568 4.88 4.88 0 1 1 5.858 4.773 3.4 3.4 0 0 0 -1.791.943 18.079 18.079 0 0 0 -4.219 7.054l-.634 1.981.79 4.25 5.19 2.66a4.314 4.314 0 0 0 2.52.45l1.51-.17a4.457 4.457 0 0 0 3.22-2.14 7.317 7.317 0 0 1 6.2-3.47 7.494 7.494 0 0 1 7.389 7.589z"/><circle cx="31.446" cy="94.083" r="3.542"/><circle cx="76.551" cy="26.127" r="3.542"/><circle cx="93.987" cy="99.719" r="5.073"/></g><circle cx="52.3" cy="56.955" fill="#da364c" r="4.78"/><circle cx="75.964" cy="61.735" fill="#da364c" r="3.713"/><circle cx="67.822" cy="78.399" fill="#da364c" r="2.675"/><circle cx="66.022" cy="51.492" fill="#da364c" r="2.675"/><circle cx="57.925" cy="68.552" fill="#da364c" r="3.104"/></svg>