<svg id="Capa_1" enable-background="new 0 0 512 512" height="512" viewBox="0 0 512 512" width="512" xmlns="http://www.w3.org/2000/svg"><g><g><path d="m428.529 35.811c9.65 0 17.472 7.823 17.472 17.472v441.245c0 9.65-7.823 17.472-17.472 17.472h-309.248c-9.65 0-17.472-7.823-17.472-17.472v-458.717z" fill="#cdbfba"/></g><path d="m121.583 0h271.135c9.65 0 17.472 7.823 17.472 17.472v441.245c0 9.65-7.823 17.472-17.472 17.472h-309.247c-9.65 0-17.472-7.823-17.472-17.472v-404.744z" fill="#f9f3f1"/><path d="m410.192 17.469v441.252c0 9.646-7.82 17.466-17.476 17.466h-20.633c9.656 0 17.476-7.82 17.476-17.466v-441.252c0-9.646-7.82-17.466-17.476-17.466h20.633c9.656 0 17.476 7.82 17.476 17.466z" fill="#efe2dd"/><path d="m121.583 0-.13 47.367c-.01 3.73-3.042 6.746-6.772 6.736l-48.682-.13z" fill="#cdbfba"/><g><path d="m330.002 0v87.848c0 4.366 3.552 7.918 7.918 7.918s7.918-3.552 7.918-7.918v-39.794c0-4.266 3.458-7.723 7.723-7.723s7.723 3.457 7.723 7.723v39.794c0 12.882-10.48 23.363-23.363 23.363s-23.363-10.481-23.363-23.363v-87.848z" fill="#cdbfba"/></g><g><g><path d="m288.139 148.036h-23.166c-4.56 0-8.257-3.697-8.257-8.257v-23.167c0-4.56-3.697-8.257-8.257-8.257h-20.727c-4.56 0-8.257 3.697-8.257 8.257v23.167c0 4.56-3.697 8.257-8.257 8.257h-23.166c-4.56 0-8.257 3.697-8.257 8.257v20.727c0 4.56 3.697 8.257 8.257 8.257h23.166c4.56 0 8.257 3.697 8.257 8.257v23.166c0 4.56 3.697 8.257 8.257 8.257h20.727c4.56 0 8.257-3.697 8.257-8.257v-23.166c0-4.56 3.697-8.257 8.257-8.257h23.166c4.56 0 8.257-3.697 8.257-8.257v-20.727c0-4.56-3.697-8.257-8.257-8.257z" fill="#ee6161"/><g fill="#e94444"><path d="m244.202 185.272h20.767c-4.56 0-8.253 3.704-8.253 8.264v23.161c0 4.56-3.693 8.264-8.253 8.264h-20.736c4.539-.021 8.212-3.714 8.212-8.264v-23.161c0-4.56 3.703-8.264 8.263-8.264z"/><path d="m264.97 148.04h-20.767c-4.56 0-8.264-3.704-8.264-8.264v-23.161c0-4.55-3.673-8.243-8.212-8.264h20.736c4.56 0 8.253 3.704 8.253 8.264v23.161c0 4.56 3.694 8.264 8.254 8.264z"/><path d="m296.394 156.293v20.726c0 4.56-3.693 8.253-8.253 8.253h-20.778c4.56 0 8.264-3.693 8.264-8.253v-20.726c0-4.56-3.704-8.253-8.264-8.253h20.778c4.56 0 8.253 3.693 8.253 8.253z"/></g></g><g fill="#cdbfba"><path d="m211.309 266.543h-86.822c-4.142 0-7.5 3.357-7.5 7.5s3.358 7.5 7.5 7.5h86.822c4.142 0 7.5-3.357 7.5-7.5s-3.358-7.5-7.5-7.5z"/><path d="m256 281.543h96.735c4.142 0 7.5-3.357 7.5-7.5s-3.358-7.5-7.5-7.5h-96.735c-4.142 0-7.5 3.357-7.5 7.5s3.358 7.5 7.5 7.5z"/><path d="m211.309 307.031h-86.822c-4.142 0-7.5 3.357-7.5 7.5s3.358 7.5 7.5 7.5h86.822c4.142 0 7.5-3.357 7.5-7.5s-3.358-7.5-7.5-7.5z"/><path d="m352.735 307.031h-96.735c-4.142 0-7.5 3.357-7.5 7.5s3.358 7.5 7.5 7.5h96.735c4.142 0 7.5-3.357 7.5-7.5s-3.358-7.5-7.5-7.5z"/><path d="m211.309 347.521h-86.822c-4.142 0-7.5 3.357-7.5 7.5s3.358 7.5 7.5 7.5h86.822c4.142 0 7.5-3.357 7.5-7.5s-3.358-7.5-7.5-7.5z"/><path d="m352.735 347.521h-96.735c-4.142 0-7.5 3.357-7.5 7.5s3.358 7.5 7.5 7.5h96.735c4.142 0 7.5-3.357 7.5-7.5s-3.358-7.5-7.5-7.5z"/><path d="m211.309 388.009h-86.822c-4.142 0-7.5 3.357-7.5 7.5s3.358 7.5 7.5 7.5h86.822c4.142 0 7.5-3.357 7.5-7.5s-3.358-7.5-7.5-7.5z"/><path d="m352.735 388.009h-96.735c-4.142 0-7.5 3.357-7.5 7.5s3.358 7.5 7.5 7.5h96.735c4.142 0 7.5-3.357 7.5-7.5s-3.358-7.5-7.5-7.5z"/></g></g></g></svg>