<svg height="512" viewBox="0 0 64 64" width="512" xmlns="http://www.w3.org/2000/svg"><g id="handwash_&#xB7;_clean_&#xB7;_medical_&#xB7;_hygiene_&#xB7;_wash" data-name="handwash &#xB7; clean &#xB7; medical &#xB7; hygiene &#xB7; wash"><path d="m59 21h-20a2.006 2.006 0 0 0 -2 2v36a2 2 0 0 0 2 2h20a2 2 0 0 0 2-2v-36a2.006 2.006 0 0 0 -2-2z" fill="#bddbff"/><path d="m59 21h-2a2.006 2.006 0 0 1 2 2v36a2 2 0 0 1 -2 2h2a2 2 0 0 0 2-2v-36a2.006 2.006 0 0 0 -2-2z" fill="#9bc9ff"/><path d="m37 33h24v20h-24z" fill="#006df0"/><path d="m59 33h2v20h-2z" fill="#005ece"/><path d="m56.55 40.4a3.014 3.014 0 0 0 -4.1-1.1l-10.228 5.856a2.98 2.98 0 0 0 -1.733-1.274l-3.489-.935-9.433-2.527a6 6 0 0 0 -3.132.007l-9.435 2.573v14l15.877 1.764a6 6 0 0 0 3.918-.923l2.205-1.425 5.29-3.416 13.16-8.5a3.006 3.006 0 0 0 1.1-4.1z" fill="#ffbcab"/><path d="m55.45 42.5-13.16 8.5-5.29 3.416-2.2 1.425a6 6 0 0 1 -3.918.923l-15.882-1.764v2l15.877 1.764a6 6 0 0 0 3.918-.923l2.205-1.425 5.29-3.416 13.16-8.5a2.917 2.917 0 0 0 1.306-3.6 2.947 2.947 0 0 1 -1.306 1.6z" fill="#ff9478"/><path d="m41 17h16v4h-16z" fill="#ffcd00"/><path d="m55 17h2v4h-2z" fill="#ebbf00"/><path d="m54 7h-1-8-1v4 6h10z" fill="#9bc9ff"/><path d="m53 7h-1v10h2v-10z" fill="#57a4ff"/><path d="m11 41h4v18h-4z" fill="#9bc9ff"/><path d="m34 7-4 3 2 3 3-2h9v-4z" fill="#ffcd00"/><path d="m53 5a2 2 0 0 0 -2-2h-4a2 2 0 0 0 -2 2v2h8z" fill="#004fac"/><path d="m51 3h-1a2 2 0 0 1 2 2v2h1v-2a2 2 0 0 0 -2-2z" fill="#00479b"/><path d="m11 39h-8v22h8v-2-18z" fill="#006df0"/><circle cx="20" cy="24" fill="#ffcd00" r="11"/><path d="m20 13a11.078 11.078 0 0 0 -1.5.114 10.987 10.987 0 0 1 0 21.772 10.995 10.995 0 1 0 1.5-21.886z" fill="#ebbf00"/><path d="m18 18v4h-4v4h4v4h4v-4h4v-4h-4v-4z" fill="#d80027"/><path d="m38.942 47.679-8.153-2.179a.962.962 0 0 0 -1.163.628.965.965 0 0 0 .665 1.238l8.477 2.272a3.117 3.117 0 0 0 3.819-1.994 2.938 2.938 0 0 0 -.062-1.857 2.984 2.984 0 0 1 -3.583 1.892z" fill="#ff9478"/></g></svg>