<svg id="Capa_1" enable-background="new 0 0 512 512" height="512" viewBox="0 0 512 512" width="512" xmlns="http://www.w3.org/2000/svg"><g><path d="m481.699 365.894c-4.229.126-7.49 3.815-7.49 8.046v31.08h-430.111v-31.08c0-4.23-3.26-7.92-7.488-8.047-4.376-.131-7.964 3.376-7.964 7.723v77.964c0 4.23 3.26 7.92 7.488 8.047 4.376.131 7.964-3.376 7.964-7.723v-31.432h430.111v31.108c0 4.231 3.261 7.92 7.49 8.046 4.376.131 7.963-3.377 7.963-7.723v-78.288c0-4.345-3.587-7.852-7.963-7.721z" fill="#e0dfe1"/><g><path clip-rule="evenodd" d="m119.825 238.826-75.92-23.711-10.278 72.827 99.689-20.207c3.65-11.505-2.132-24.208-13.491-28.909z" fill="#edf4ff" fill-rule="evenodd"/></g><g><path clip-rule="evenodd" d="m133.316 267.735c3.65-11.505-2.132-24.208-13.49-28.909l-32.908-10.279c11.359 4.701 17.14 27.682 13.49 39.188z" fill="#dbeaff" fill-rule="evenodd"/></g><g><path clip-rule="evenodd" d="m242.145 267.735h-64.679-109.967-23.594l-18.542 49.262 18.542 31.274 198.24-18.543 17.009-33.522z" fill="#c3ddff" fill-rule="evenodd"/></g><g><path clip-rule="evenodd" d="m242.145 329.728h-198.24v-61.993-52.62-44.955c0-11.379-8.454-21.253-19.779-22.363-13.027-1.276-24.109 9.042-24.109 21.852v200.878c0 1.707 1.384 3.091 3.091 3.091h33.264 205.773l17.009-21.944z" fill="#f9f7f8" fill-rule="evenodd"/></g><g><path clip-rule="evenodd" d="m466.489 329.728v-110.934h-185.216c-21.52 0-39.128 17.608-39.128 39.128v9.813 61.993 43.889h224.344z" fill="#b3e59f" fill-rule="evenodd"/></g><g><path clip-rule="evenodd" d="m510.376 370.527v-151.192c0-11.379-8.454-21.254-19.779-22.364-13.027-1.276-24.108 9.044-24.108 21.823l-31.581 110.934 31.581 43.889h15.447 25.35c1.707 0 3.09-1.384 3.09-3.09z" fill="#f9f7f8" fill-rule="evenodd"/></g><g><path clip-rule="evenodd" d="m202.14 267.735h40.004v61.993h-40.004z" fill="#a4ccff" fill-rule="evenodd"/></g><g><path clip-rule="evenodd" d="m202.14 329.728h40.004v43.889h-40.004z" fill="#f0f0f0" fill-rule="evenodd"/></g><g><path clip-rule="evenodd" d="m466.489 329.728v-61.993-48.941h-36.267v48.941 61.993 43.889h36.267z" fill="#95d6a4" fill-rule="evenodd"/></g><g><path clip-rule="evenodd" d="m43.905 267.735v-52.62-44.926c0-11.628-8.82-21.642-20.421-22.446-4.391-.304-8.564.706-12.137 2.692 6.745 3.767 11.33 10.979 11.33 19.214v45.466 52.62 61.993h10.22 11.008v-43.889z" fill="#f0f0f0" fill-rule="evenodd"/></g><g><path clip-rule="evenodd" d="m279.783 174.526c45.202-24.003 62.371-80.098 38.369-125.301-12.498-23.565-33.785-39.538-57.67-45.991-15.564-4.205-32.266-4.38-48.385 0-6.541 1.781-12.994 4.293-19.243 7.621-45.173 24.003-62.371 80.098-38.369 125.301s80.097 62.373 125.298 38.37z" fill="#faf5dc" fill-rule="evenodd"/></g><g><path clip-rule="evenodd" d="m287.171 85.375c0-5.525-4.52-10.045-10.045-10.045h-23.447v-23.448c0-5.525-4.52-10.045-10.045-10.045h-14.629c-5.509 0-10.016 4.507-10.016 10.016v23.477h-23.477c-5.525 0-10.045 4.52-10.045 10.045v14.63c0 5.525 4.52 10.045 10.045 10.045h23.477v23.448c0 5.525 4.52 10.045 10.045 10.045h14.6c5.525 0 10.045-4.52 10.045-10.045v-23.448h23.448c5.525 0 10.045-4.52 10.045-10.045v-14.63z" fill="#ff8086" fill-rule="evenodd"/></g><g><path clip-rule="evenodd" d="m279.783 174.526c45.202-24.003 62.371-80.098 38.369-125.301-12.498-23.565-33.785-39.538-57.67-45.991-12.06-3.271-24.791-4.117-37.434-2.278 3.738.526 7.417 1.285 11.038 2.278 23.886 6.453 45.143 22.426 57.67 45.991 24.002 45.203 6.833 101.298-38.369 125.301-9.724 5.169-19.914 8.41-30.193 9.899 18.775 2.715 38.544-.322 56.589-9.899z" fill="#f5ebcd" fill-rule="evenodd"/></g><g><path clip-rule="evenodd" d="m66.419 481.952c0-16.586-13.461-30.048-30.047-30.048-16.615 0-30.047 13.462-30.047 30.048s13.432 30.048 30.047 30.048c16.585 0 30.047-13.462 30.047-30.048z" fill="#7e707d" fill-rule="evenodd"/></g><g><path clip-rule="evenodd" d="m511.982 481.835c-.088-16.557-13.52-29.931-30.047-29.931-16.615 0-30.047 13.462-30.047 30.048s13.432 30.048 30.047 30.048c16.527 0 29.959-13.374 30.047-29.902v-.146z" fill="#7e707d" fill-rule="evenodd"/></g><g><path clip-rule="evenodd" d="m511.982 481.835c-.088-16.557-13.52-29.931-30.047-29.931-3.679 0-7.212.672-10.483 1.869 11.388 4.234 19.535 15.184 19.593 28.062v.117.146c-.058 12.848-8.205 23.799-19.593 28.033 3.27 1.226 6.804 1.869 10.483 1.869 16.527 0 29.959-13.374 30.047-29.902v-.146z" fill="#6a5d6a" fill-rule="evenodd"/></g><g><path clip-rule="evenodd" d="m36.372 512c17.463 0 31.462-14.923 29.932-32.703-1.145-13.315-11.211-24.44-24.352-26.876-5.682-1.054-11.167-.439-16.063 1.353 11.446 4.263 19.593 15.272 19.593 28.179s-8.147 23.945-19.593 28.179c3.27 1.226 6.803 1.868 10.483 1.868z" fill="#6a5d6a" fill-rule="evenodd"/></g><g><path clip-rule="evenodd" d="m510.376 370.527v-151.183c0-11.46-8.573-21.383-19.989-22.392-4.941-.437-9.597.789-13.475 3.183 6.278 3.884 10.454 10.804 10.454 18.659v154.823h19.919c1.708 0 3.091-1.384 3.091-3.09z" fill="#f0f0f0" fill-rule="evenodd"/></g></g></svg>